<?xml version="1.0" encoding="utf-8"?>
<!-- Generator: Adobe Illustrator 25.4.1, SVG Export Plug-In . SVG Version: 6.00 Build 0)  -->
<svg version="1.1" xmlns="http://www.w3.org/2000/svg" xmlns:xlink="http://www.w3.org/1999/xlink" x="0px" y="0px"
	 viewBox="0 0 500 500" style="enable-background:new 0 0 500 500;" xml:space="preserve">
<style type="text/css">
	.st0{fill:#E0E0E0;}
	.st1{fill:#F5F5F5;}
	.st2{fill:#EBEBEB;}
	.st3{display:none;}
	.st4{display:inline;}
	.st5{fill:#263238;}
	.st6{fill:#FF725E;}
	.st7{fill-rule:evenodd;clip-rule:evenodd;fill:#FF725E;}
	.st8{opacity:0.9;fill-rule:evenodd;clip-rule:evenodd;fill:#FFFFFF;}
	.st9{opacity:0.6;fill-rule:evenodd;clip-rule:evenodd;fill:#FFFFFF;}
	.st10{opacity:0.3;fill-rule:evenodd;clip-rule:evenodd;fill:#FFFFFF;}
	.st11{fill:#455A64;}
	.st12{opacity:0.3;}
	.st13{fill:#FFFFFF;}
	.st14{fill:#AE7461;}
</style>
<g id="Background_Complete">
	<g>
		<g>
			<path class="st0" d="M83.96,447.21l-0.85,4.13c5.9,8.58,17.91,10.03,28.31,9.44c10.4-0.59,21.53-2.26,30.67,2.74
				c0.78,0.42,1.6,0.99,1.77,1.86c0.16,0.82-0.32,1.61-0.59,2.4c-0.86,2.54,0.56,5.41,2.71,7c2.15,1.59,4.87,2.18,7.52,2.62
				c12.96,2.15,26.33,1.76,39.14-1.14c1.95-0.44,4.3-1.35,4.07-3.66c-0.12-1.13-0.86-2.1-1.85-2.66l-4.92-2.84
				c-2.52-1.45-1.56-5.29,1.34-5.41c9.39-0.38,19.13,2.77,28.71,3.49c8.45,0.63,17.04-0.68,24.92-3.82
				c7.63-3.04,14.84-7.81,23.04-8.29c7.43-0.44,14.53,2.73,21.8,4.31c11.22,2.43,23.25,0.98,33.56-4.06
				c5.79-2.83,10.7-1.78,17.03-0.56c14.27,2.75,47.45,7.39,56.58,5.13c4.22-1.04,22.72-7.8,25.34-10.66H83.96z M179.75,473.7
				c-4.8,0-8.69-1.04-8.69-2.32c0-1.28,3.89-2.32,8.69-2.32s8.69,1.04,8.69,2.32C188.44,472.67,184.55,473.7,179.75,473.7z
				 M229.2,460.76c-4.48,0-8.11-0.82-8.11-1.83c0-1.01,3.63-1.83,8.11-1.83c4.48,0,8.11,0.82,8.11,1.83
				C237.31,459.94,233.68,460.76,229.2,460.76z"/>
		</g>
	</g>
	<g>
		<path class="st1" d="M9.06,226.91c7.38-15.54,26.08-24.1,43.1-21.57c17.02,2.52,31.72,14.88,39.25,30.35
			c8.35-4.95,19.12-5.57,27.99-1.63c8.87,3.95,15.62,12.36,17.54,21.88c4.61-2.68,10.61-2.81,15.33-0.33
			c4.72,2.48,8.02,7.49,8.43,12.81H11.55L9.06,226.91z"/>
	</g>
	<g>
		<g>
			<g>
				<path class="st1" d="M213.57,267.02c4.89-10.17,17.7-15.44,28.06-11.55c-3.01-24.22,12.41-49.54,34.91-57.31
					c22.5-7.77,49.64,2.83,61.46,24.01c2.47-34.69,21.99-61.44,40.89-77.12c23.46-19.45,46.09-18.55,46.09-18.55
					s1.94-19.1,21.84-29.5c12.12-6.34,33.32-7.04,41.32,4.27v167.36L213.57,267.02z"/>
			</g>
		</g>
	</g>
	<g>
		<g>
			<g>
				<g>
					<path class="st2" d="M104.23,105.45c-0.78-2.08-1.57-4.18-2.88-5.97c-1.31-1.79-3.22-3.26-5.42-3.53
						c-2.2-0.27-4.64,0.92-5.36,3.02c-0.32-4.73-0.99-9.58-3.35-13.69c-2.37-4.11-6.78-7.33-11.51-7.04
						c-4.46,0.27-8.28,3.59-10.4,7.52c-2.12,3.93-2.85,8.44-3.55,12.86c-1.69-2.07-5.26-1.42-7.02,0.59
						c-1.76,2.01-2.21,4.82-2.59,7.47h53.22L104.23,105.45z"/>
				</g>
			</g>
		</g>
	</g>
	<g>
		<g>
			<path class="st1" d="M323.73,148.44c-2.17-5.8-4.39-11.67-8.04-16.67c-3.65-5-8.99-9.09-15.13-9.84
				c-6.14-0.75-12.95,2.56-14.95,8.42c-0.88-13.2-2.75-26.74-9.36-38.2c-6.61-11.46-18.93-20.46-32.13-19.65
				c-12.45,0.76-23.11,10.01-29.03,20.98c-5.92,10.98-7.95,23.56-9.9,35.88c-4.72-5.79-14.68-3.97-19.61,1.65
				c-4.92,5.62-6.17,13.47-7.22,20.86l147.07,1.53L323.73,148.44z"/>
		</g>
	</g>
	<g>
		<g>
			<path class="st2" d="M421.24,189.65c-0.56-1.49-1.13-2.99-2.06-4.28c-0.94-1.28-2.31-2.33-3.88-2.53
				c-1.58-0.19-3.32,0.66-3.84,2.16c-0.23-3.39-0.71-6.86-2.4-9.8c-1.69-2.94-4.86-5.25-8.24-5.04c-3.19,0.2-5.93,2.57-7.45,5.38
				c-1.52,2.82-2.04,6.05-2.54,9.21c-1.21-1.49-3.77-1.02-5.03,0.42c-1.26,1.44-1.58,3.45-1.85,5.35l37.73,0.39L421.24,189.65z"/>
		</g>
	</g>
	<g>
		<g>
			<path class="st1" d="M168.88,66.26c-0.47-1.24-0.94-2.5-1.72-3.57c-0.78-1.07-1.93-1.95-3.24-2.11c-1.32-0.16-2.77,0.55-3.2,1.8
				c-0.19-2.83-0.59-5.73-2-8.18c-1.42-2.45-4.06-4.38-6.88-4.21c-2.67,0.16-4.95,2.14-6.22,4.49c-1.27,2.35-1.7,5.05-2.12,7.69
				c-1.01-1.24-3.15-0.85-4.2,0.35c-1.05,1.2-1.32,2.88-1.55,4.47l31.51,0.33L168.88,66.26z"/>
		</g>
	</g>
	<g>
		<g>
			<path class="st1" d="M158.34,184.91c-0.9-2.41-1.82-4.85-3.34-6.93c-1.52-2.08-3.73-3.78-6.29-4.09
				c-2.55-0.31-5.38,1.07-6.21,3.5c-0.37-5.48-1.14-11.11-3.89-15.87c-2.74-4.76-7.87-8.5-13.35-8.17
				c-5.17,0.32-9.6,4.16-12.06,8.72c-2.46,4.56-3.3,9.79-4.11,14.91c-1.96-2.41-6.1-1.65-8.15,0.68c-2.05,2.33-2.56,5.59-3,8.67
				l61.1,0.64L158.34,184.91z"/>
		</g>
	</g>
</g>
<g id="Background_Simple" class="st3">
	<g class="st4">
		<path class="st1" d="M71.47,134.88l1.64-3.8c13.86-32.01,43.82-54.27,78.29-56.82c4.43-0.33,8.89-0.33,13.33,0
			c31.98,2.38,62.25,22.15,77.6,50.7c9.03,16.79,13.67,36.91,28.11,49.24c18.79,16.04,46.5,12.81,70.69,8.71
			c24.19-4.1,51.93-7.26,70.65,8.87c11.73,10.1,17.2,26,18.5,41.51c3.44,41.05-19.94,81.4-53.56,104.48
			c-33.62,23.08-75.92,30.56-116.54,28.03c-56.91-3.54-113.78-26.95-151.95-69.94S53.18,189.46,71.47,134.88z"/>
	</g>
</g>
<g id="Sea">
	<g>
		<g>
			<path class="st5" d="M467.46,268.43c0,0.14-97.37,0.26-217.45,0.26c-120.12,0-217.47-0.12-217.47-0.26s97.35-0.26,217.47-0.26
				C370.09,268.17,467.46,268.28,467.46,268.43z"/>
		</g>
	</g>
</g>
<g id="Lines">
	<g>
		<g>
			<g>
				<path class="st5" d="M410.89,292.15c0,0.14-67.58,0.26-150.93,0.26c-83.38,0-150.95-0.12-150.95-0.26
					c0-0.14,67.57-0.26,150.95-0.26C343.3,291.89,410.89,292.01,410.89,292.15z"/>
			</g>
		</g>
		<g>
			<g>
				<path class="st5" d="M261.98,298.83c0,0.14-39.62,0.26-88.48,0.26c-48.88,0-88.49-0.12-88.49-0.26s39.61-0.26,88.49-0.26
					C222.36,298.57,261.98,298.69,261.98,298.83z"/>
			</g>
		</g>
		<g>
			<g>
				<path class="st5" d="M348.79,309.41c0,0.14-27.5,0.26-61.42,0.26c-33.93,0-61.43-0.12-61.43-0.26s27.5-0.26,61.43-0.26
					C321.28,309.15,348.79,309.27,348.79,309.41z"/>
			</g>
		</g>
	</g>
	<g>
		<g>
			<path class="st5" d="M324.76,465.72c0,0.14-17.2,0.26-38.41,0.26c-21.22,0-38.42-0.12-38.42-0.26c0-0.14,17.2-0.26,38.42-0.26
				C307.56,465.46,324.76,465.58,324.76,465.72z"/>
		</g>
	</g>
	<g>
		<g>
			<path class="st6" d="M149.09,454.27c0,0.14-17.2,0.26-38.41,0.26c-21.22,0-38.42-0.12-38.42-0.26s17.2-0.26,38.42-0.26
				C131.89,454.01,149.09,454.12,149.09,454.27z"/>
		</g>
	</g>
	<g>
		<g>
			<path class="st6" d="M402.82,451.3c0,0.14-7.74,0.26-17.29,0.26c-9.55,0-17.29-0.12-17.29-0.26c0-0.14,7.74-0.26,17.29-0.26
				C395.08,451.04,402.82,451.15,402.82,451.3z"/>
		</g>
	</g>
	<g>
		<g>
			<path class="st5" d="M266.69,472.16c0,0.14-5.77,0.26-12.88,0.26c-7.12,0-12.88-0.12-12.88-0.26s5.77-0.26,12.88-0.26
				C260.92,471.9,266.69,472.02,266.69,472.16z"/>
		</g>
	</g>
</g>
<g id="Sun">
	<g>
		<g>
			
				<ellipse transform="matrix(0.7071 -0.7071 0.7071 0.7071 50.1834 282.9887)" class="st7" cx="366.69" cy="80.92" rx="30.01" ry="30.01"/>
			
				<ellipse transform="matrix(0.7071 -0.7071 0.7071 0.7071 50.1834 282.9887)" class="st8" cx="366.69" cy="80.92" rx="30.01" ry="30.01"/>
		</g>
		<g>
			
				<ellipse transform="matrix(0.9926 -0.1214 0.1214 0.9926 -7.1112 45.114)" class="st7" cx="366.69" cy="80.92" rx="26.76" ry="26.76"/>
			
				<ellipse transform="matrix(0.9926 -0.1214 0.1214 0.9926 -7.1112 45.114)" class="st9" cx="366.69" cy="80.92" rx="26.76" ry="26.76"/>
		</g>
		<g>
			
				<ellipse transform="matrix(0.9873 -0.1591 0.1591 0.9873 -8.2028 59.3626)" class="st7" cx="366.69" cy="80.92" rx="22.27" ry="22.27"/>
			
				<ellipse transform="matrix(0.9873 -0.1591 0.1591 0.9873 -8.2028 59.3626)" class="st10" cx="366.69" cy="80.92" rx="22.27" ry="22.27"/>
		</g>
		<path class="st7" d="M384.52,80.92c0,9.85-7.98,17.83-17.83,17.83c-9.85,0-17.83-7.98-17.83-17.83c0-9.85,7.98-17.83,17.83-17.83
			C376.54,63.09,384.52,71.07,384.52,80.92z"/>
	</g>
</g>
<g id="Birds">
	<g>
		<g>
			<g>
				<g>
					<g>
						<path class="st5" d="M116.94,135c-0.01,0.04-0.63-0.22-1.8-0.48c-1.16-0.26-2.91-0.48-5.02-0.19
							c-2.1,0.28-4.59,1.12-6.76,2.92c-2.17,1.76-4.03,4.42-4.77,7.58c-0.01,0.03-0.01,0.06-0.02,0.08l-0.14,0.54l-0.21-0.51
							c-1.22-3-3.37-5.39-5.72-6.9c-2.35-1.54-4.87-2.18-6.98-2.33c-2.12-0.15-3.84,0.16-4.99,0.46c-1.15,0.3-1.76,0.57-1.77,0.54
							c0-0.01,0.14-0.08,0.43-0.21c0.29-0.13,0.73-0.29,1.3-0.46c1.15-0.34,2.88-0.69,5.04-0.58c2.14,0.11,4.73,0.74,7.15,2.3
							c2.41,1.54,4.63,3.97,5.87,7.05l-0.35,0.03c0.01-0.03,0.01-0.06,0.02-0.09c0.76-3.25,2.68-5.97,4.92-7.76
							c2.24-1.82,4.8-2.66,6.94-2.91c2.16-0.26,3.92,0.01,5.09,0.31c0.59,0.15,1.03,0.3,1.32,0.42
							C116.79,134.92,116.95,134.99,116.94,135z"/>
					</g>
				</g>
			</g>
		</g>
		<g>
			<g>
				<g>
					<g>
						<path class="st5" d="M167.13,110.23c-0.01,0.03-0.35-0.1-1-0.23c-0.64-0.13-1.59-0.24-2.75-0.08
							c-1.15,0.16-2.5,0.63-3.68,1.61c-1.18,0.96-2.19,2.41-2.59,4.13l-0.01,0.05l-0.14,0.54l-0.21-0.51
							c-0.66-1.63-1.84-2.93-3.11-3.76c-1.28-0.84-2.65-1.2-3.8-1.29c-1.16-0.09-2.1,0.07-2.73,0.22c-0.63,0.16-0.97,0.29-0.98,0.26
							c-0.01-0.01,0.07-0.06,0.23-0.13c0.16-0.08,0.4-0.17,0.71-0.27c0.63-0.2,1.59-0.4,2.79-0.34c1.19,0.06,2.63,0.4,3.97,1.26
							c1.34,0.85,2.57,2.2,3.27,3.91l-0.35,0.03l0.01-0.05c0.43-1.81,1.49-3.32,2.74-4.31c1.25-1.01,2.67-1.47,3.86-1.6
							c1.2-0.14,2.17,0.02,2.81,0.2c0.32,0.09,0.57,0.17,0.73,0.25C167.05,110.17,167.14,110.22,167.13,110.23z"/>
					</g>
				</g>
			</g>
		</g>
		<g>
			<g>
				<g>
					<g>
						<path class="st5" d="M134.32,98.96c0.02,0.02-0.34,0.39-0.96,1.09c-0.62,0.7-1.47,1.76-2.36,3.18
							c-1.78,2.8-3.56,7.26-3.5,12.38c0,0.05,0,0.11,0,0.16l-0.36,0.03c-0.38-2.5-1.21-4.79-2.26-6.7
							c-1.05-1.92-2.28-3.48-3.45-4.65c-1.16-1.18-2.22-2.01-2.99-2.53c-0.76-0.53-1.2-0.79-1.19-0.82
							c0.01-0.01,0.12,0.04,0.34,0.16c0.21,0.12,0.54,0.28,0.93,0.54c0.79,0.49,1.89,1.3,3.09,2.47c1.2,1.17,2.47,2.73,3.56,4.67
							c1.09,1.94,1.94,4.27,2.33,6.81l-0.36,0.03c0-0.05,0-0.1,0-0.16c-0.06-5.21,1.79-9.73,3.64-12.52
							c0.92-1.42,1.81-2.46,2.47-3.14c0.32-0.35,0.6-0.58,0.78-0.76C134.21,99.03,134.31,98.95,134.32,98.96z"/>
					</g>
				</g>
			</g>
		</g>
	</g>
</g>
<g id="Sail_Boat">
	<g>
		<g>
			<g>
				<g>
					<path class="st5" d="M121.01,356c0.13,0.05-0.44,1.92-1.44,4.11c-1,2.19-2.03,3.85-2.15,3.78c-0.13-0.07,0.69-1.83,1.68-4
						C120.08,357.72,120.87,355.95,121.01,356z"/>
				</g>
			</g>
			<g>
				<g>
					<path class="st11" d="M128.5,391.96v-0.5l-0.48-0.11c0.04-0.25,0.03-2.28-0.01-5.16c0-0.25,0.1-0.49,0.29-0.68
						c0.3-0.31,0.82-0.49,1.39-0.49h58.98v1h-58.98c-0.42,0-0.66,0.15-0.69,0.21c0.08,5.36,0.05,5.39-0.14,5.58l-0.15,0.15
						L128.5,391.96z"/>
				</g>
				<g>
					<rect x="133.96" y="385.52" class="st11" width="1" height="5.98"/>
				</g>
				<g>
					<rect x="140.37" y="385.52" class="st11" width="1" height="5.98"/>
				</g>
				<g>
					<rect x="146.77" y="385.52" class="st11" width="1" height="5.98"/>
				</g>
				<g>
					<rect x="153.18" y="385.52" class="st11" width="1" height="5.98"/>
				</g>
				<g>
					<rect x="159.59" y="385.52" class="st11" width="1" height="5.98"/>
				</g>
				<g>
					<rect x="165.99" y="385.52" class="st11" width="1" height="5.98"/>
				</g>
				<g>
					<rect x="172.4" y="385.52" class="st11" width="1" height="5.98"/>
				</g>
				<g>
					<rect x="178.8" y="385.52" class="st11" width="1" height="5.98"/>
				</g>
			</g>
			<g>
				<g>
					<path class="st5" d="M102.31,397.97c-0.13-0.06,2.87-7.28,6.71-16.13c3.84-8.86,7.06-15.98,7.19-15.93
						c0.13,0.06-2.87,7.28-6.71,16.13C105.66,390.89,102.44,398.02,102.31,397.97z"/>
				</g>
			</g>
			<g>
				<g>
					<path class="st0" d="M122.79,396.06l3.38-4.62h54.28l10.23-13.99c1-1.37,2.59-2.18,4.29-2.18h51.97l15.32,23.64L122.79,396.06z
						"/>
				</g>
				<g>
					<polygon class="st11" points="249.42,379.11 213.77,379.37 212.07,393.69 258.92,393.69 					"/>
				</g>
				<g class="st12">
					<polygon class="st13" points="241.19,379.17 214.93,393.69 222.69,393.69 247.79,379.13 					"/>
				</g>
				<g class="st12">
					<polygon class="st13" points="249.82,379.73 227.51,393.69 230.34,393.69 250.61,380.94 					"/>
				</g>
			</g>
			<g class="st12">
				<polygon points="247.63,376.35 247.63,397.59 251.15,397.59 250.9,381.43 				"/>
			</g>
			<g>
				<g>
					<path class="st5" d="M252.03,399.63c-0.13-0.07,3.06-6.41,7.12-14.17c4.06-7.76,7.46-14,7.59-13.93
						c0.13,0.07-3.06,6.41-7.12,14.18C255.56,393.46,252.16,399.7,252.03,399.63z"/>
				</g>
			</g>
			<g>
				<g>
					<polygon class="st0" points="249.89,363.85 241.98,363.85 240.53,365.8 249.89,376.35 					"/>
				</g>
				<g>
					<g>
						<path class="st5" d="M249.89,363.85c0.02-0.02,0.04,0.29,0.06,0.87c0.02,0.68,0.04,1.54,0.07,2.56
							c0.05,2.21,0.1,5.37,0.12,9.06l0,0.65l-0.43-0.49c-1.23-1.38-2.57-2.89-3.97-4.45c-1.93-2.19-3.75-4.25-5.38-6.1l-0.13-0.14
							l0.11-0.15c0.51-0.68,1-1.32,1.47-1.94l0.07-0.09l0.11,0c2.44,0.02,4.44,0.07,5.81,0.11
							C249.17,363.79,249.92,363.82,249.89,363.85c-0.02,0.02-0.23,0.03-0.6,0.05c-0.45,0.02-0.98,0.03-1.62,0.05
							c-1.39,0.04-3.33,0.09-5.68,0.11l0.17-0.09c-0.46,0.62-0.93,1.28-1.43,1.96l-0.01-0.29c1.64,1.84,3.48,3.89,5.42,6.07
							c1.39,1.57,2.72,3.08,3.95,4.47l-0.43,0.16c0.02-3.59,0.07-6.68,0.12-8.9c0.03-1.05,0.05-1.92,0.07-2.62
							C249.85,364.21,249.86,363.87,249.89,363.85z"/>
					</g>
				</g>
			</g>
			<g>
				<g>
					<path class="st14" d="M112.25,382.91c20.86,3.68,42.23,4.36,63.28,1.95c5.94-0.68,11.85-1.61,17.71-2.76
						c0.79-0.16,0.45-1.36-0.33-1.21c-20.52,4.05-41.59,5.14-62.42,3.22c-6-0.55-11.97-1.36-17.91-2.41
						C111.8,381.56,111.46,382.77,112.25,382.91L112.25,382.91z"/>
				</g>
			</g>
			<g>
				<g>
					<path class="st14" d="M117.42,391.8c19.41,3.71,39.36,4.42,58.98,2.01c5.46-0.67,10.9-1.58,16.28-2.72
						c0.79-0.17,0.45-1.37-0.33-1.21c-19.07,4.02-38.72,5.08-58.12,3.12c-5.53-0.56-11.03-1.37-16.48-2.42
						C116.97,390.44,116.63,391.65,117.42,391.8L117.42,391.8z"/>
				</g>
			</g>
			<g>
				<g>
					<path class="st14" d="M193.38,382.34c20.2,3.61,40.81,4.01,61.16,1.42c5.72-0.73,11.4-1.67,17.06-2.8
						c0.79-0.16,0.45-1.36-0.33-1.21c-19.76,3.94-39.96,5.48-60.05,3.72c-5.87-0.51-11.7-1.3-17.5-2.34
						C192.92,380.99,192.58,382.2,193.38,382.34L193.38,382.34z"/>
				</g>
			</g>
			<g>
				<g>
					<path class="st14" d="M193.57,391.82c20.25,3.87,41.22,4.41,61.68,1.99c5.61-0.66,11.18-1.56,16.7-2.72
						c0.79-0.17,0.45-1.37-0.33-1.21c-19.91,4.2-40.61,5.1-60.85,3.14c-5.66-0.55-11.29-1.35-16.87-2.41
						C193.11,390.46,192.78,391.67,193.57,391.82L193.57,391.82z"/>
				</g>
			</g>
			<g>
				<g>
					<path class="st14" d="M270.48,380.8c19.19,3.38,38.75,3.96,58.12,1.85c4.75-0.52,9.48-1.19,14.19-1.99
						c1.22-0.21,2.43-0.42,3.65-0.65c0.57-0.11,1.14-0.21,1.71-0.32c0.33-0.06,0.85-0.3,1.14-0.28c0.16,0.01,0.38,0.14,0.54,0.19
						c3.14,1,6.57,1.25,9.85,1.24c8.41-0.03,16.7-2.2,24.47-5.28c0.74-0.29,0.42-1.5-0.33-1.21c-7.13,2.83-14.68,4.89-22.38,5.2
						c-3.62,0.14-7.38-0.03-10.88-1.04c-0.27-0.08-0.55-0.21-0.82-0.26c-0.91-0.16-1.98,0.26-2.89,0.43
						c-4.85,0.91-9.72,1.69-14.62,2.31c-9.49,1.19-19.06,1.78-28.63,1.68c-10.99-0.11-21.96-1.15-32.78-3.06
						C270.03,379.45,269.69,380.66,270.48,380.8L270.48,380.8z"/>
				</g>
			</g>
			<g>
				<g>
					<path class="st14" d="M270.87,390.87c17.61,3.2,35.71,3.84,53.53,2.3c4.37-0.38,8.72-0.89,13.05-1.55
						c2.24-0.34,4.48-0.72,6.71-1.15c0.99-0.19,1.99-0.39,2.98-0.59c0.65-0.14,1.35-0.4,1.97-0.43c1.12-0.04,2.35,0.27,3.47,0.36
						c2.49,0.2,4.98,0.31,7.47,0.31c6.25-0.01,13.52-0.42,18.89-3.99c0.67-0.44,0.04-1.53-0.63-1.08c-4.8,3.2-11.19,3.69-16.8,3.81
						c-4.05,0.09-8.13-0.12-12.15-0.61c-0.1-0.01-0.36-0.01-0.12-0.01c-0.74,0-1.5,0.25-2.23,0.41c-2.06,0.43-4.13,0.83-6.2,1.19
						c-4.4,0.76-8.83,1.36-13.28,1.81c-8.87,0.9-17.81,1.23-26.73,1.01c-9.93-0.25-19.84-1.19-29.62-2.97
						C270.42,389.52,270.08,390.72,270.87,390.87L270.87,390.87z"/>
				</g>
			</g>
			<g class="st12">
				<path d="M190.76,397.59L190.76,397.59c-0.41,0-0.74-0.33-0.74-0.74V381.1c0-0.41,0.33-0.74,0.74-0.74l0,0
					c0.41,0,0.74,0.33,0.74,0.74v15.75C191.5,397.26,191.17,397.59,190.76,397.59z"/>
			</g>
			<g>
				<g>
					<g>
						<path class="st0" d="M191.5,379.81c0,6.43,0,12.86,0,19.29c0,1.32,2.04,1.32,2.04,0c0-6.43,0-12.86,0-19.29
							C193.54,378.49,191.5,378.49,191.5,379.81L191.5,379.81z"/>
					</g>
					<g>
						<g>
							<path class="st5" d="M191.5,379.81c0,0-0.06-0.16,0.05-0.47c0.1-0.29,0.53-0.69,1.16-0.61c0.3,0.03,0.65,0.21,0.84,0.56
								c0.19,0.38,0.11,0.77,0.14,1.17c0.01,0.82,0.02,1.74,0.04,2.74c0.05,4.07,0.08,9.69,0.08,15.89c0.02,0.47-0.3,0.99-0.76,1.15
								c-0.44,0.17-0.95,0.12-1.34-0.17c-0.42-0.27-0.49-0.89-0.46-1.22c0-0.37,0-0.74,0-1.11c0.01-1.46,0.01-2.87,0.02-4.22
								c0.02-2.67,0.04-5.08,0.06-7.14c0.03-1.97,0.06-3.59,0.08-4.82C191.43,380.43,191.46,379.81,191.5,379.81
								c0.04,0,0.07,0.63,0.1,1.77c0.02,1.22,0.05,2.85,0.08,4.82c0.02,2.06,0.03,4.48,0.06,7.14c0,1.35,0.01,2.76,0.02,4.22
								c0,0.37,0,0.74,0,1.11c-0.01,0.4,0.03,0.62,0.26,0.81c0.22,0.17,0.56,0.21,0.83,0.1c0.28-0.11,0.43-0.36,0.43-0.66
								c0-6.21,0.03-11.82,0.08-15.89c0.01-1,0.03-1.92,0.04-2.74c-0.01-0.41,0.06-0.8-0.07-1.06c-0.13-0.27-0.39-0.43-0.65-0.47
								c-0.53-0.09-0.92,0.21-1.04,0.45C191.52,379.64,191.53,379.81,191.5,379.81z"/>
						</g>
					</g>
				</g>
			</g>
			<g>
				<g>
					<g>
						<path class="st0" d="M270.15,379.5c0,6.43,0,12.86,0,19.29c0,1.32,2.04,1.32,2.04,0c0-6.43,0-12.86,0-19.29
							C272.19,378.19,270.15,378.19,270.15,379.5L270.15,379.5z"/>
					</g>
					<g>
						<g>
							<path class="st5" d="M270.15,379.5c0,0-0.06-0.16,0.05-0.47c0.1-0.29,0.53-0.69,1.16-0.61c0.3,0.03,0.65,0.21,0.84,0.56
								c0.19,0.38,0.11,0.77,0.14,1.17c0.01,0.82,0.02,1.74,0.04,2.74c0.05,4.07,0.08,9.69,0.08,15.89c0.02,0.47-0.3,0.99-0.76,1.15
								c-0.44,0.17-0.95,0.12-1.34-0.17c-0.42-0.27-0.49-0.89-0.46-1.22c0-0.37,0-0.74,0-1.11c0.01-1.46,0.01-2.87,0.02-4.22
								c0.02-2.67,0.04-5.08,0.06-7.14c0.03-1.97,0.06-3.59,0.08-4.82C270.08,380.13,270.11,379.5,270.15,379.5
								c0.04,0,0.07,0.63,0.1,1.77c0.02,1.22,0.05,2.85,0.08,4.82c0.02,2.06,0.04,4.48,0.06,7.14c0,1.35,0.01,2.76,0.02,4.22
								c0,0.37,0,0.73,0,1.11c-0.01,0.4,0.03,0.62,0.26,0.81c0.22,0.17,0.56,0.21,0.83,0.1c0.28-0.11,0.43-0.36,0.43-0.66
								c0-6.21,0.03-11.82,0.08-15.89c0.01-1,0.03-1.92,0.04-2.74c-0.01-0.41,0.06-0.8-0.07-1.06c-0.13-0.27-0.39-0.43-0.65-0.47
								c-0.53-0.09-0.92,0.21-1.04,0.45C270.16,379.34,270.18,379.51,270.15,379.5z"/>
						</g>
					</g>
				</g>
			</g>
			<g>
				<g>
					<g>
						<path class="st0" d="M348.81,375.93c0,6.43,0,12.86,0,19.29c0,1.32,2.04,1.32,2.04,0c0-6.43,0-12.86,0-19.29
							C350.86,374.61,348.81,374.61,348.81,375.93L348.81,375.93z"/>
					</g>
					<g>
						<g>
							<path class="st5" d="M348.81,375.93c0,0-0.06-0.16,0.05-0.47c0.1-0.29,0.53-0.69,1.16-0.61c0.3,0.03,0.65,0.21,0.84,0.56
								c0.19,0.38,0.11,0.77,0.14,1.17c0.01,0.82,0.02,1.74,0.04,2.74c0.05,4.07,0.08,9.69,0.08,15.89c0.02,0.47-0.3,0.99-0.76,1.15
								c-0.44,0.17-0.95,0.12-1.34-0.17c-0.42-0.27-0.49-0.89-0.46-1.22c0-0.37,0-0.74,0-1.11c0.01-1.46,0.01-2.87,0.02-4.22
								c0.02-2.67,0.04-5.08,0.06-7.14c0.03-1.97,0.06-3.59,0.08-4.82C348.74,376.56,348.77,375.93,348.81,375.93
								c0.04,0,0.07,0.63,0.1,1.77c0.02,1.22,0.05,2.85,0.08,4.82c0.02,2.06,0.03,4.48,0.06,7.14c0,1.35,0.01,2.76,0.02,4.22
								c0,0.37,0,0.74,0,1.11c-0.01,0.4,0.03,0.62,0.26,0.81c0.22,0.17,0.56,0.21,0.83,0.1c0.28-0.11,0.43-0.36,0.43-0.66
								c0-6.21,0.03-11.82,0.08-15.89c0.01-1,0.03-1.92,0.04-2.74c-0.01-0.41,0.06-0.8-0.07-1.06c-0.13-0.27-0.39-0.43-0.65-0.47
								c-0.53-0.09-0.92,0.21-1.04,0.45C348.83,375.76,348.84,375.93,348.81,375.93z"/>
						</g>
					</g>
				</g>
			</g>
			<g>
				<path class="st0" d="M94.73,398.82c0,0,9.34,21.14,25.69,36.3c8.43,7.81,19.56,12.03,31.05,12.03l187.17-0.02
					c9.72,0.3,19.37-2.31,27.39-7.81c3.47-2.38,6.79-5.39,9.32-9.14c8.99-13.36,28.78-39.06,29.81-39.32
					c1.03-0.26-114.36,11.05-199.42,9.25C139.72,398.71,94.73,398.82,94.73,398.82z"/>
			</g>
			<g>
				<g>
					<g>
						<g>
							<rect x="97.38" y="387.78" class="st0" width="18.55" height="1.77"/>
						</g>
						<g>
							<g>
								<path class="st5" d="M115.93,389.55c-0.01-0.01-0.03-0.18-0.05-0.48c-0.02-0.36-0.04-0.78-0.06-1.28l0.11,0.11
									c-3.13,0.09-10.26,0.15-18.55,0.15h0c0.52-0.52,0.14-0.14,0.26-0.26v0v0v0v0.01v0.01v0.03v0.06v0.11v0.23l0,0.45
									c0,0.3,0,0.59,0,0.87l-0.26-0.26c5.15,0,9.74,0.06,13.09,0.11c1.61,0.03,2.94,0.06,3.97,0.08
									C115.38,389.51,115.91,389.53,115.93,389.55c0.02,0.02-0.46,0.05-1.37,0.07c-1.01,0.02-2.32,0.05-3.91,0.08
									c-3.33,0.05-8.02,0.11-13.28,0.11l-0.26,0l0-0.26c0-0.28,0-0.57,0-0.87l0-0.45v-0.23v-0.11v-0.06v-0.03v-0.01v-0.01v0v0v0
									c0.12-0.12-0.26,0.26,0.26-0.26h0c8.29,0,15.42,0.06,18.55,0.15l0.11,0l0,0.1c-0.02,0.6-0.04,1.05-0.06,1.35
									C115.96,389.42,115.95,389.57,115.93,389.55z"/>
							</g>
						</g>
					</g>
				</g>
				<g>
					<g>
						<g>
							<path class="st0" d="M120.63,399.08l-10.7-20.22c-0.28-0.53-0.83-0.86-1.43-0.86h-8.61c-0.89,0-1.62,0.73-1.62,1.62v18.95
								H96.5v-18.95c0-1.87,1.52-3.39,3.39-3.39h8.61c1.26,0,2.41,0.69,3,1.81l10.7,20.22L120.63,399.08z"/>
						</g>
						<g>
							<g>
								<path class="st5" d="M120.63,399.08c0-0.01,0.13-0.09,0.38-0.23c0.28-0.16,0.65-0.37,1.15-0.65l-0.03,0.08
									c-1.47-2.65-4.94-9.1-9.67-17.97c-0.3-0.55-0.6-1.12-0.9-1.69c-0.3-0.59-0.6-1.12-1.11-1.5c-0.49-0.39-1.11-0.63-1.75-0.67
									c-0.68,0-1.38,0-2.08,0c-1.41,0-2.86,0.01-4.34,0.01c-0.74,0-1.49,0-2.25,0c-0.73-0.02-1.43,0.18-2.01,0.62
									c-0.58,0.42-1.01,1.05-1.19,1.76c-0.17,0.69-0.07,1.52-0.1,2.31c0,1.6,0,3.23,0,4.88c0,3.31,0,6.7,0,10.17
									c0,0.8,0,1.61,0,2.35l-0.26-0.26c0.63,0,1.21,0,1.77,0l-0.26,0.26c0-3.83,0.01-7.56,0.01-11.15c0-1.8,0.01-3.56,0.01-5.28
									c0-0.86,0-1.72,0.01-2.56c0-0.99,0.88-1.84,1.84-1.82c1.64,0,3.24,0.01,4.8,0.01c0.78,0,1.54,0,2.29,0.01
									c0.38,0,0.75,0,1.12,0c0.35,0,0.79-0.02,1.17,0.16c0.38,0.17,0.69,0.46,0.87,0.82c0.16,0.31,0.33,0.63,0.49,0.93
									c0.32,0.62,0.64,1.22,0.95,1.82c0.62,1.19,1.21,2.33,1.78,3.41c2.25,4.34,4.07,7.86,5.35,10.32c0.62,1.2,1.1,2.15,1.45,2.83
									c0.15,0.31,0.28,0.55,0.37,0.75C120.59,398.98,120.63,399.08,120.63,399.08c0,0.01-0.05-0.07-0.14-0.22
									c-0.1-0.18-0.23-0.41-0.39-0.7c-0.36-0.66-0.86-1.58-1.5-2.74c-1.32-2.45-3.2-5.94-5.53-10.26
									c-0.59-1.09-1.2-2.24-1.84-3.43c-0.32-0.6-0.65-1.21-0.98-1.83c-0.17-0.31-0.33-0.63-0.5-0.94
									c-0.15-0.28-0.39-0.5-0.68-0.63c-0.29-0.14-0.61-0.12-1-0.12c-0.37,0-0.74,0-1.12,0c-0.75,0-1.52,0-2.29,0.01
									c-1.55,0-3.15,0.01-4.79,0.01c-0.71-0.01-1.37,0.63-1.36,1.36c0,0.84,0,1.69,0,2.55c0,1.72,0,3.48,0.01,5.28
									c0,3.59,0.01,7.32,0.01,11.15l0,0.26l-0.26,0c-0.56,0-1.14,0-1.77,0l-0.26,0v-0.26c0-0.74,0-1.55,0-2.35
									c0-3.47,0-6.87,0-10.17c0-1.65,0-3.28,0-4.88c0-0.4,0-0.8,0-1.2c-0.01-0.38,0.01-0.83,0.12-1.24
									c0.2-0.82,0.71-1.55,1.38-2.04c0.66-0.5,1.51-0.73,2.3-0.7c0.76,0,1.51,0,2.25,0c1.48,0,2.93,0.01,4.34,0.01
									c0.71,0,1.41,0.01,2.11,0.01c0.73,0.05,1.43,0.33,1.99,0.77c0.57,0.43,0.94,1.09,1.21,1.65c0.3,0.57,0.6,1.14,0.89,1.7
									c4.67,8.9,8.05,15.4,9.41,18.1l0.03,0.06l-0.05,0.03c-0.52,0.26-0.92,0.46-1.21,0.6
									C120.74,399.04,120.62,399.09,120.63,399.08z"/>
							</g>
						</g>
					</g>
				</g>
			</g>
			<g>
				<g>
					<g>
						<g>
							<rect x="379.99" y="381.83" class="st0" width="18.55" height="1.77"/>
						</g>
						<g>
							<g>
								<path class="st5" d="M379.99,383.6c-0.01,0.01-0.03-0.13-0.05-0.42c-0.02-0.29-0.04-0.75-0.06-1.35l0-0.1l0.11,0
									c3.13-0.09,10.26-0.15,18.55-0.15h0c0.52,0.52,0.14,0.14,0.26,0.26v0v0v0v0.01v0.01v0.03v0.06v0.11v0.23l0,0.45
									c0,0.3,0,0.59,0,0.87l0,0.26l-0.26,0c-5.26,0-9.94-0.06-13.28-0.11c-1.59-0.03-2.9-0.06-3.91-0.08
									C380.46,383.64,379.97,383.62,379.99,383.6c0.02-0.02,0.56-0.05,1.5-0.07c1.02-0.02,2.36-0.05,3.97-0.08
									c3.34-0.05,7.93-0.11,13.09-0.11l-0.26,0.26c0-0.28,0-0.57,0-0.87l0-0.45v-0.23v-0.11v-0.06v-0.03v-0.01v-0.01v0v0v0
									c0.12,0.12-0.26-0.26,0.26,0.26h0c-8.29,0-15.42-0.06-18.55-0.15l0.11-0.11c-0.02,0.51-0.04,0.93-0.06,1.28
									C380.02,383.41,380.01,383.58,379.99,383.6z"/>
							</g>
						</g>
					</g>
				</g>
				<g>
					<g>
						<g>
							<path class="st0" d="M375.3,393.13L386,372.9c0.28-0.53,0.83-0.86,1.43-0.86h8.61c0.89,0,1.62,0.73,1.62,1.62v18.95h1.77
								v-18.95c0-1.87-1.52-3.39-3.39-3.39h-8.61c-1.26,0-2.41,0.69-3,1.81l-10.7,20.22L375.3,393.13z"/>
						</g>
						<g>
							<g>
								<path class="st5" d="M375.3,393.13c0,0.01-0.12-0.05-0.38-0.17c-0.29-0.15-0.69-0.34-1.21-0.6l-0.05-0.03l0.03-0.06
									c1.36-2.7,4.75-9.2,9.41-18.1c0.29-0.56,0.59-1.12,0.89-1.7c0.28-0.56,0.64-1.22,1.21-1.65c0.56-0.44,1.26-0.72,1.99-0.77
									c0.69,0,1.39-0.01,2.11-0.01c1.41,0,2.86-0.01,4.34-0.01c0.74,0,1.49,0,2.25,0c0.79-0.03,1.64,0.21,2.3,0.7
									c0.67,0.48,1.17,1.21,1.38,2.04c0.11,0.4,0.12,0.86,0.12,1.24c0,0.4,0,0.8,0,1.2c0,1.6,0,3.23,0,4.88c0,3.31,0,6.7,0,10.17
									c0,0.79,0,1.58,0,2.35v0.26h-0.26c-0.6,0-1.2,0-1.77,0h-0.26l0-0.26c0-3.83,0.01-7.56,0.01-11.15c0-1.8,0.01-3.56,0.01-5.28
									c0-0.86,0-1.71,0-2.55c0.01-0.73-0.65-1.37-1.36-1.36c-1.64,0-3.24-0.01-4.79-0.01c-0.78,0-1.54,0-2.29-0.01
									c-0.38,0-0.75,0-1.12,0c-0.39,0-0.7-0.02-1,0.12c-0.29,0.13-0.53,0.35-0.68,0.63c-0.17,0.32-0.34,0.63-0.5,0.94
									c-0.33,0.62-0.66,1.23-0.98,1.83c-0.64,1.19-1.25,2.34-1.84,3.43c-2.33,4.32-4.21,7.81-5.53,10.26
									c-0.64,1.17-1.14,2.09-1.5,2.74c-0.16,0.29-0.29,0.52-0.39,0.7C375.35,393.06,375.3,393.13,375.3,393.13
									c0-0.01,0.04-0.1,0.12-0.27c0.1-0.19,0.22-0.44,0.37-0.75c0.35-0.68,0.83-1.62,1.45-2.83c1.28-2.46,3.1-5.97,5.35-10.32
									c0.57-1.09,1.16-2.23,1.78-3.41c0.31-0.59,0.63-1.2,0.95-1.82c0.16-0.31,0.33-0.62,0.49-0.93c0.19-0.36,0.5-0.65,0.87-0.82
									c0.38-0.19,0.82-0.16,1.17-0.16c0.37,0,0.74,0,1.12,0c0.75,0,1.52,0,2.29-0.01c1.55,0,3.15-0.01,4.8-0.01
									c0.96-0.02,1.84,0.83,1.84,1.82c0,0.84,0,1.7,0.01,2.56c0,1.72,0,3.48,0.01,5.28c0,3.59,0.01,7.32,0.01,11.15l-0.26-0.26
									c0.56,0,1.14,0,1.77,0l-0.26,0.26c0-0.74,0-1.55,0-2.35c0-3.47,0-6.87,0-10.17c0-1.65,0-3.28,0-4.88
									c-0.03-0.79,0.08-1.62-0.1-2.31c-0.17-0.71-0.61-1.34-1.19-1.76c-0.58-0.43-1.28-0.64-2.01-0.62c-0.76,0-1.51,0-2.25,0
									c-1.48,0-2.93-0.01-4.34-0.01c-0.7,0-1.39,0-2.08,0c-0.64,0.04-1.26,0.28-1.75,0.67c-0.51,0.39-0.81,0.91-1.11,1.5
									c-0.31,0.57-0.61,1.14-0.9,1.69c-4.73,8.86-8.2,15.32-9.67,17.97l-0.03-0.08c0.5,0.28,0.87,0.49,1.15,0.65
									C375.17,393.04,375.3,393.12,375.3,393.13z"/>
							</g>
						</g>
					</g>
				</g>
			</g>
			<g>
				<g>
					<g>
						<path class="st0" d="M116.1,366.48c-0.59,0.17-0.38,0.04-0.1,0.04c0.24,0,0.47-0.01,0.71-0.01c0.87-0.01,1.73-0.02,2.6-0.03
							c3.09-0.02,6.17-0.03,9.26-0.03c10.01-0.02,20.03-0.02,30.04-0.01c12,0.01,24.01,0.02,36.01,0.03
							c10.35,0.01,20.7,0.03,31.05,0.05c5.02,0.01,10.06,0.18,15.07,0.03c0.07,0,0.14,0,0.21,0c1.97,0,1.98-3.06,0-3.07
							c-4.15-0.01-8.31-0.02-12.46-0.02c-9.94-0.02-19.89-0.03-29.83-0.05c-12.03-0.02-24.07-0.03-36.1-0.04
							c-10.42-0.01-20.85-0.01-31.27,0.01c-3.46,0.01-6.92,0.01-10.38,0.03c-1.65,0.01-3.32-0.04-4.97,0.05
							c-0.22,0.01-0.44,0.01-0.65,0.07C113.39,364.05,114.19,367.01,116.1,366.48L116.1,366.48z"/>
					</g>
					<g>
						<g>
							<path class="st5" d="M116.1,366.48c0-0.01-0.22,0.11-0.67,0.07c-0.44-0.04-1.14-0.49-1.26-1.41
								c-0.06-0.44,0.06-0.99,0.49-1.37c0.44-0.38,1.09-0.4,1.71-0.41c1.27-0.02,2.74-0.04,4.39-0.07
								c6.62-0.03,16.16-0.07,27.95-0.12c23.62,0.01,56.21,0.01,92.22,0.02c0.63-0.03,1.35,0.36,1.59,0.98
								c0.27,0.59,0.23,1.3-0.12,1.86c-0.17,0.29-0.46,0.5-0.76,0.62c-0.3,0.13-0.67,0.13-0.91,0.13l-1.67,0.04
								c-2.23,0.04-4.44,0.02-6.63,0c-4.39-0.07-8.7-0.07-12.95-0.08c-8.49-0.02-16.68-0.03-24.48-0.05
								c-15.6-0.03-29.65-0.06-41.46-0.09c-11.79-0.03-21.33-0.05-27.95-0.06c-3.29-0.01-5.84-0.01-7.6-0.01c-0.86,0-1.51,0-1.98,0
								c-0.1-0.02-0.22,0.05-0.27,0c0.07,0,0.15-0.02,0.2-0.03C116.04,366.49,116.1,366.48,116.1,366.48c0,0-0.05,0.02-0.16,0.06
								c-0.06,0.01-0.12,0.04-0.21,0.05c0.05-0.11,0.17-0.07,0.28-0.09c0.46-0.01,1.12-0.03,1.98-0.05c1.76-0.02,4.31-0.05,7.6-0.08
								c6.62-0.02,16.16-0.06,27.95-0.1c11.81-0.01,25.86-0.02,41.46-0.02c7.8,0.01,15.99,0.01,24.48,0.02c4.24,0,8.57,0,12.95,0.07
								c2.19,0.02,4.4,0.04,6.62,0l1.67-0.04c0.56,0.02,0.99-0.11,1.25-0.52c0.25-0.38,0.29-0.94,0.08-1.36
								c-0.18-0.44-0.63-0.68-1.12-0.68c-36-0.07-68.6-0.13-92.21-0.18c-11.79-0.02-21.33-0.04-27.95-0.05
								c-1.65,0.01-3.11,0.02-4.38,0.02c-0.63,0-1.23,0.02-1.64,0.35c-0.39,0.34-0.52,0.84-0.47,1.26c0.1,0.87,0.75,1.31,1.17,1.37
								C115.87,366.56,116.09,366.45,116.1,366.48z"/>
						</g>
					</g>
				</g>
			</g>
			<g>
				<g>
					<path class="st5" d="M249.62,363.85c-0.11,0.13-2.29-1.65-4.73-4.1c-1.13-1.13-2.16-2.15-3.12-3.12
						c-0.79-0.8-1.29-1.29-1.24-1.35c0.11-0.13,2.29,1.65,4.73,4.1c1.13,1.13,2.15,2.15,3.12,3.12
						C249.17,363.3,249.66,363.79,249.62,363.85z"/>
				</g>
			</g>
			<g>
				<g>
					<path class="st5" d="M249.62,32.72c0.14,0.04-0.85,4.14-2.21,9.16c-1.36,5.02-2.58,9.06-2.71,9.02
						c-0.14-0.04,0.85-4.14,2.21-9.16C248.26,36.73,249.48,32.69,249.62,32.72z"/>
				</g>
			</g>
			<g>
				<g>
					<g>
						<path class="st0" d="M249.62,28.43c0,48.31,0,96.61,0,144.92c0,48.31,0,96.61,0,144.92c0,27.25,0,54.5,0,81.75
							c0,1.97,3.07,1.98,3.07,0c0-48.31,0-96.61,0-144.92c0-48.31,0-96.61,0-144.92c0-27.25,0-54.5,0-81.75
							C252.68,26.46,249.62,26.46,249.62,28.43L249.62,28.43z"/>
					</g>
					<g>
						<g>
							<path class="st5" d="M249.62,28.43c0,0,0-0.04,0.01-0.12c0.01-0.08,0-0.21,0.06-0.36c0.08-0.3,0.37-0.8,1.02-0.96
								c0.31-0.08,0.7-0.09,1.08,0.05c0.38,0.14,0.75,0.47,0.88,0.95c0.11,0.48,0.05,0.99,0.07,1.55c0,0.55,0,1.14,0.01,1.77
								c0.01,5.02,0.03,12.41,0.05,21.93c0.02,19.05,0.05,46.61,0.08,80.66c0.02,68.11,0.05,162.19,0.08,266.11
								c0,0.45-0.17,0.96-0.53,1.29c-0.36,0.33-0.84,0.48-1.3,0.47c-0.46-0.01-0.94-0.18-1.28-0.52c-0.35-0.34-0.49-0.85-0.48-1.29
								c0-1.62,0-3.24,0-4.85c0-3.23,0-6.45,0-9.66c0-6.42,0-12.79,0-19.12c0-12.65,0-25.12,0-37.37
								c0.01-24.5,0.01-48.14,0.02-70.65c0.02-45.03,0.04-85.58,0.06-119.63c0.03-34.05,0.06-61.6,0.08-80.65
								c0.02-9.52,0.04-16.91,0.05-21.93c0.01-2.5,0.02-4.41,0.03-5.7C249.6,29.09,249.62,28.43,249.62,28.43s0.02,0.66,0.03,1.94
								c0.01,1.29,0.01,3.2,0.03,5.7c0.01,5.02,0.03,12.41,0.05,21.93c0.02,19.05,0.05,46.6,0.08,80.65
								c0.02,34.06,0.03,74.61,0.06,119.63c0,22.52,0.01,46.15,0.02,70.65c0,12.25,0,24.72,0,37.37c0,6.33,0,12.7,0,19.12
								c0,3.21,0,6.43,0,9.66c0,1.61,0,3.23,0,4.85c-0.05,0.74,0.53,1.29,1.25,1.29c0.72,0.04,1.33-0.52,1.3-1.24
								c0.03-103.91,0.06-197.99,0.08-266.11c0.03-34.05,0.06-61.61,0.08-80.66c0.02-9.52,0.04-16.91,0.05-21.93
								c0-0.63,0-1.22,0.01-1.77c-0.02-0.55,0.05-1.08-0.05-1.53c-0.12-0.45-0.46-0.77-0.82-0.91c-0.36-0.14-0.74-0.14-1.04-0.06
								c-0.63,0.15-0.93,0.62-1.01,0.92C249.61,28.26,249.63,28.44,249.62,28.43z"/>
						</g>
					</g>
				</g>
			</g>
			<g>
				<g>
					<path class="st5" d="M363.48,393.69c0,0-0.11-0.26-0.31-0.78c-0.2-0.53-0.49-1.3-0.87-2.3c-0.76-2.04-1.86-5.01-3.29-8.85
						c-2.84-7.7-6.93-18.83-11.99-32.57c-10.08-27.53-23.99-65.55-39.35-107.54c-15.28-42.04-29.11-80.09-39.12-107.64
						c-4.95-13.78-8.95-24.94-11.73-32.67c-1.35-3.86-2.4-6.86-3.12-8.91c-0.33-1.02-0.59-1.79-0.77-2.33
						c-0.17-0.53-0.24-0.79-0.24-0.79c0.49,1.34,6.25,17.19,16.21,44.58c10.05,27.54,23.93,65.57,39.26,107.59
						c15.31,42.01,29.17,80.04,39.21,107.59c5,13.77,9.04,24.91,11.84,32.63c1.38,3.85,2.46,6.84,3.2,8.88
						c0.36,1.01,0.63,1.78,0.82,2.31C363.4,393.42,363.48,393.69,363.48,393.69z"/>
				</g>
			</g>
			<g>
				<g>
					<path class="st5" d="M400.13,391.07c0,0-0.15-0.31-0.41-0.92c-0.27-0.62-0.66-1.53-1.16-2.71c-1.02-2.4-2.51-5.91-4.43-10.44
						c-3.83-9.08-9.35-22.21-16.18-38.42c-13.61-32.47-32.41-77.32-53.18-126.84c-20.67-49.59-39.39-94.47-52.93-126.97
						c-6.71-16.26-12.14-29.42-15.9-38.53c-1.84-4.55-3.28-8.09-4.25-10.51c-0.47-1.21-0.84-2.12-1.07-2.75
						c-0.22-0.63-0.32-0.95-0.32-0.95s0.14,0.32,0.37,0.93c0.26,0.63,0.63,1.54,1.12,2.73c1,2.4,2.46,5.93,4.34,10.47
						c3.8,9.09,9.28,22.23,16.06,38.47c13.59,32.49,32.35,77.35,53.08,126.91c20.71,49.55,39.46,94.41,53.03,126.9
						c6.77,16.24,12.24,29.39,16.03,38.48c1.88,4.54,3.34,8.07,4.34,10.47c0.49,1.19,0.86,2.1,1.12,2.73
						C400.01,390.75,400.13,391.07,400.13,391.07z"/>
				</g>
			</g>
			<g>
				<polygon class="st6" points="354.92,370.79 266.2,370.27 260.53,108.2 				"/>
			</g>
			<g>
				<g>
					<path class="st11" d="M161.88,414.89h-17.49c-2.02,0-3.66-1.64-3.66-3.66l0,0c0-2.02,1.64-3.66,3.66-3.66h17.49
						c2.02,0,3.66,1.64,3.66,3.66l0,0C165.54,413.25,163.9,414.89,161.88,414.89z"/>
				</g>
				<g class="st12">
					<path class="st13" d="M144.9,414.89l11.68-7.32h5.62c0.34,0.02,0.66,0.09,0.95,0.19l-11.07,7.14H144.9z"/>
				</g>
				<g class="st12">
					<path class="st13" d="M154.88,414.89l9.44-6.48c0.23,0.2,0.44,0.43,0.62,0.69l-8.72,5.79H154.88z"/>
				</g>
			</g>
			<g>
				<g>
					<path class="st6" d="M405.92,392.91c0.03-0.01,0.58-0.24,0.6-0.25c0.75-0.36,1.27-1.34,1.24-2.16c0,0,0,0,0,0
						c-0.05-1.1-0.74-2.11-1.84-2.41c-0.81-0.22-1.78-0.01-2.6,0.06c-1.87,0.16-3.75,0.33-5.62,0.49c-6.9,0.6-13.81,1.17-20.72,1.72
						c-22.58,1.8-45.18,3.34-67.79,4.55c-27.59,1.48-55.23,2.5-82.86,2.54c-15.12,0.02-30.24-0.41-45.36-0.67
						c-14.11-0.24-28.21-0.43-42.32-0.58c-14.41-0.14-28.85-0.46-43.27-0.23c-0.19,0-0.38,0-0.57,0c-3.22,0.01-3.22,5.01,0,5
						c11.69-0.03,23.39,0.06,35.08,0.15c28.85,0.24,57.7,1.04,86.54,1.29c27.49,0.24,55-0.63,82.45-1.97
						c23.71-1.16,47.4-2.7,71.07-4.52c7.79-0.6,15.58-1.23,23.37-1.9c3.79-0.32,7.61-0.53,11.38-0.98c0.52-0.06,0.87,0.14-0.11-0.12
						c-0.61-0.8-1.22-1.61-1.84-2.41c0,0,0,0,0,0c0.41-0.72,0.83-1.44,1.24-2.16c0.2-0.08,0.39-0.17,0.59-0.25
						C401.51,388.98,402.82,393.81,405.92,392.91L405.92,392.91z"/>
				</g>
			</g>
			<g>
				<g>
					<path class="st11" d="M106.18,418.63c3.86,5.49,8.62,11.37,14.21,16.55c0.25,0.23,0.51,0.45,0.77,0.68
						c83.85,2.21,166.97,2.22,249.33-0.05c1.78-1.64,3.44-3.49,4.84-5.58c3.13-4.66,7.58-10.81,12.08-16.86
						C341.18,420.93,144.54,420.97,106.18,418.63z"/>
				</g>
				<g>
					<path class="st6" d="M124.22,438.33c7.84,5.78,17.4,8.88,27.23,8.88l187.17-0.02c9.72,0.3,19.37-2.31,27.39-7.81
						c0.58-0.4,1.15-0.81,1.71-1.24C288.32,440.81,204.53,440.91,124.22,438.33z"/>
				</g>
				<g>
					<path class="st13" d="M121.16,435.86c0.99,0.87,2,1.7,3.06,2.47c80.31,2.58,164.1,2.47,243.5-0.2c0.95-0.72,1.87-1.5,2.77-2.32
						C288.13,438.08,205.01,438.07,121.16,435.86z"/>
				</g>
			</g>
			<g>
				<path class="st6" d="M120.31,356.54h121.37c-21.02-85.13-8.06-191.08,4.18-309.58C177,153.66,129.72,257.55,120.31,356.54z"/>
			</g>
			<g>
				<g>
					<path class="st5" d="M195.62,263.69c0.02,0.01-0.11,0.26-0.38,0.72c-0.29,0.5-0.68,1.17-1.17,2.02
						c-1.01,1.75-2.55,4.24-4.52,7.27c-1.96,3.04-4.4,6.59-7.22,10.46c-2.84,3.85-6.06,8.01-9.6,12.25
						c-3.56,4.23-7.09,8.13-10.39,11.59c-3.32,3.45-6.39,6.47-9.04,8.94c-2.64,2.47-4.83,4.42-6.37,5.72
						c-0.74,0.63-1.34,1.13-1.78,1.5c-0.41,0.34-0.63,0.51-0.64,0.5c-0.01-0.01,0.19-0.21,0.57-0.58c0.43-0.39,1-0.92,1.71-1.57
						c1.5-1.35,3.65-3.34,6.25-5.84c2.61-2.49,5.65-5.54,8.94-9c3.27-3.48,6.79-7.38,10.34-11.6c3.53-4.23,6.76-8.37,9.61-12.2
						c2.83-3.85,5.3-7.37,7.3-10.38c2.01-3,3.59-5.46,4.66-7.18c0.52-0.82,0.94-1.47,1.25-1.96
						C195.45,263.91,195.61,263.68,195.62,263.69z"/>
				</g>
			</g>
			<g>
				<g>
					<path class="st5" d="M193.6,303.4c0.02,0.03-0.33,0.39-0.99,1.03c-0.66,0.64-1.63,1.53-2.86,2.62
						c-2.45,2.17-5.94,5.05-9.98,7.99c-4.04,2.94-7.84,5.39-10.65,7.07c-1.4,0.84-2.55,1.49-3.36,1.93
						c-0.81,0.43-1.26,0.66-1.28,0.63c-0.02-0.03,0.4-0.32,1.17-0.8c0.86-0.54,1.95-1.23,3.27-2.06c2.76-1.75,6.52-4.24,10.54-7.17
						c4.02-2.94,7.54-5.76,10.04-7.85c1.19-1,2.19-1.84,2.96-2.49C193.18,303.69,193.58,303.38,193.6,303.4z"/>
				</g>
			</g>
			<g>
				<g>
					<g>
						<path class="st0" d="M266.2,372.31c22.8,0,45.61,0,68.41,0c6.49,0,12.99,0,19.48,0c1.46,0,1.46-2.04,0-2.04
							c-22.8,0-45.61,0-68.41,0c-6.49,0-12.99,0-19.48,0C264.74,370.27,264.74,372.31,266.2,372.31L266.2,372.31z"/>
					</g>
					<g>
						<g>
							<path class="st5" d="M266.2,372.31c0,0-0.04,0.01-0.12,0c-0.08,0-0.2-0.01-0.35-0.06c-0.29-0.08-0.75-0.49-0.66-1.15
								c0.04-0.31,0.26-0.66,0.64-0.81c0.38-0.14,0.8-0.08,1.24-0.1c0.89-0.01,1.92-0.01,3.07-0.02c4.64-0.02,11.32-0.05,19.56-0.08
								c16.53-0.02,39.33-0.05,64.52-0.08c0.45-0.01,0.99,0.22,1.21,0.68c0.23,0.44,0.19,1-0.12,1.39c-0.29,0.43-0.88,0.51-1.26,0.5
								l-1.17,0c-1.56,0-3.1,0-4.63,0c-3.07,0-6.09,0-9.06,0c-5.94-0.01-11.67-0.01-17.13-0.02c-10.91-0.02-20.74-0.04-29.01-0.06
								c-8.24-0.03-14.91-0.06-19.55-0.08c-2.29-0.02-4.08-0.04-5.32-0.05c-0.59-0.01-1.05-0.02-1.38-0.03
								C266.36,372.33,266.2,372.31,266.2,372.31s0.16-0.02,0.47-0.03c0.33-0.01,0.79-0.01,1.38-0.03c1.24-0.01,3.03-0.03,5.32-0.05
								c4.64-0.02,11.32-0.05,19.55-0.08c8.26-0.02,18.09-0.03,29.01-0.06c5.46,0,11.19-0.01,17.13-0.02c2.97,0,5.99,0,9.06,0
								c1.53,0,3.08,0,4.63,0l1.17,0c0.38,0.01,0.67-0.05,0.85-0.3c0.18-0.22,0.21-0.58,0.07-0.83c-0.13-0.26-0.42-0.4-0.75-0.4
								c-25.18-0.03-47.99-0.06-64.52-0.08c-8.24-0.03-14.91-0.06-19.56-0.08c-1.15-0.01-2.18-0.02-3.07-0.02
								c-0.44,0.01-0.87-0.05-1.2,0.07c-0.33,0.13-0.53,0.43-0.58,0.71c-0.1,0.6,0.3,0.99,0.58,1.08
								C266.04,372.32,266.21,372.29,266.2,372.31z"/>
						</g>
					</g>
				</g>
			</g>
			<g>
				<g>
					<path class="st5" d="M331.86,350.8c0,0.02-0.21-0.02-0.59-0.1c-0.44-0.1-0.99-0.23-1.68-0.38c-0.73-0.16-1.62-0.38-2.63-0.71
						c-1.01-0.32-2.18-0.63-3.43-1.13c-0.63-0.23-1.28-0.48-1.97-0.73c-0.68-0.26-1.37-0.59-2.09-0.9c-1.46-0.6-2.94-1.39-4.52-2.19
						c-3.11-1.7-6.41-3.77-9.65-6.27c-3.21-2.53-6.04-5.22-8.44-7.82c-1.16-1.33-2.29-2.58-3.23-3.85
						c-0.48-0.63-0.96-1.21-1.38-1.81c-0.41-0.6-0.81-1.18-1.19-1.73c-0.78-1.08-1.38-2.14-1.93-3.05c-0.57-0.9-1-1.71-1.33-2.38
						c-0.32-0.62-0.58-1.13-0.78-1.53c-0.17-0.35-0.26-0.54-0.24-0.55c0.02-0.01,0.13,0.17,0.33,0.5c0.23,0.39,0.51,0.88,0.86,1.48
						c0.36,0.65,0.82,1.44,1.4,2.32c0.58,0.89,1.19,1.93,1.99,2.99c0.39,0.54,0.79,1.11,1.21,1.7c0.42,0.59,0.92,1.16,1.4,1.78
						c0.95,1.25,2.08,2.48,3.24,3.79c2.41,2.56,5.22,5.23,8.41,7.74c3.21,2.48,6.48,4.55,9.55,6.26c1.56,0.81,3.03,1.61,4.47,2.22
						c0.71,0.32,1.39,0.65,2.07,0.92c0.67,0.26,1.32,0.52,1.94,0.76c1.23,0.52,2.39,0.85,3.39,1.2c1,0.35,1.87,0.6,2.59,0.79
						c0.67,0.19,1.22,0.35,1.65,0.48C331.66,350.72,331.86,350.79,331.86,350.8z"/>
				</g>
			</g>
			<g class="st12">
				<path d="M264.09,289.44c0,0,6.05,63.98,25.05,70.12c15.4,4.99,64.42,10.7,64.42,10.7h-87.37L264.09,289.44z"/>
			</g>
			<g class="st12">
				<path d="M120.51,356.54c0,0,42.95-1.91,67.42-16.24s42.61-88.79,42.61-88.79c1.49,35.57,3.7,73.14,11.14,105.02H120.51z"/>
			</g>
			<g>
				<g>
					<path class="st5" d="M363.48,396.21c0,0-14.5,1.7-38.06,3.08c-23.56,1.4-56.15,2.39-92.15,2.69
						c-36.01,0.24-68.61-0.11-92.2-0.56c-11.8-0.22-21.34-0.45-27.93-0.64c-3.28-0.1-5.84-0.18-7.59-0.23
						c-0.86-0.03-1.51-0.06-1.97-0.07c-0.44-0.02-0.67-0.04-0.67-0.04s0.23-0.01,0.67-0.01c0.46,0.01,1.12,0.01,1.98,0.02
						c1.75,0.03,4.31,0.07,7.6,0.13c6.61,0.11,16.15,0.27,27.93,0.47c23.59,0.36,56.18,0.66,92.19,0.41
						c35.99-0.3,68.57-1.23,92.13-2.54c2.95-0.14,5.75-0.29,8.4-0.48c2.65-0.18,5.15-0.34,7.49-0.5c2.34-0.16,4.51-0.3,6.52-0.44
						c2-0.17,3.82-0.33,5.47-0.47c3.27-0.27,5.82-0.49,7.57-0.63c0.85-0.07,1.51-0.12,1.97-0.15
						C363.25,396.21,363.48,396.21,363.48,396.21z"/>
				</g>
			</g>
			<g>
				<g>
					<path class="st11" d="M180.99,412.55c-0.5,2.01-2.53,3.24-4.55,2.75c-2.01-0.5-3.24-2.53-2.75-4.55
						c0.5-2.01,2.53-3.24,4.55-2.75C180.25,408.5,181.48,410.53,180.99,412.55z"/>
				</g>
				<g class="st12">
					<path class="st13" d="M178.72,408.16l-5.14,3.38c-0.04,0.17-0.02,1.56,0.91,2.56l6.12-4.29
						C180.62,409.82,179.93,408.57,178.72,408.16z"/>
				</g>
			</g>
			<g>
				<g>
					<circle class="st11" cx="190.08" cy="411.65" r="3.76"/>
				</g>
				<g class="st12">
					<path class="st13" d="M192.58,408.85l-5.96,4.27c0,0,0.37,0.81,0.62,0.98l6.12-4.29C193.35,409.82,193.03,409.18,192.58,408.85
						z"/>
				</g>
			</g>
			<g>
				<path class="st0" d="M203.59,375.87c0.08-0.38,4.56-5.57,5.7-5.77c1.13-0.2,20.57,1.61,22,2.22c1.44,0.6,3.48,3.55,3.48,3.55
					H203.59z"/>
			</g>
			<g>
				<g>
					<path class="st5" d="M243.6,375.26c0,0.14-11.05,0.26-24.67,0.26c-13.63,0-24.67-0.12-24.67-0.26c0-0.14,11.04-0.26,24.67-0.26
						C232.55,375,243.6,375.12,243.6,375.26z"/>
				</g>
			</g>
			<g class="st12">
				<path d="M117.59,400.78c0,0,82.84,4.06,136.35,3.36c66.55-0.86,122.96-8.92,122.96-8.92s-84.72,7.11-139.42,6.28
					C182.79,400.67,117.59,400.78,117.59,400.78z"/>
			</g>
		</g>
		<g>
			<g>
				<path class="st5" d="M389.69,447.21c0,0.14-66.03,0.26-147.47,0.26c-81.47,0-147.48-0.12-147.48-0.26s66.02-0.26,147.48-0.26
					C323.66,446.95,389.69,447.07,389.69,447.21z"/>
			</g>
		</g>
	</g>
</g>
</svg>
